solid ascii
  facet normal -5.773503e-01 5.773503e-01 5.773503e-01
    outer loop
      vertex   -1.205000e+02 1.232000e+02 1.000000e+00
      vertex   -1.215000e+02 1.232000e+02 0.000000e+00
      vertex   -1.215000e+02 1.222000e+02 1.000000e+00
    endloop
  endfacet
  facet normal -7.071068e-01 7.071068e-01 2.050733e-16
    outer loop
      vertex   -1.205000e+02 1.232000e+02 5.000000e+01
      vertex   -1.205000e+02 1.232000e+02 1.000000e+00
      vertex   -1.215000e+02 1.222000e+02 5.000000e+01
    endloop
  endfacet
  facet normal -7.071068e-01 7.071068e-01 -2.050733e-16
    outer loop
      vertex   -1.215000e+02 1.222000e+02 5.000000e+01
      vertex   -1.205000e+02 1.232000e+02 1.000000e+00
      vertex   -1.215000e+02 1.222000e+02 1.000000e+00
    endloop
  endfacet
  facet normal 5.773503e-01 5.773503e-01 5.773503e-01
    outer loop
      vertex   -1.585000e+02 1.232000e+02 0.000000e+00
      vertex   -1.595000e+02 1.232000e+02 1.000000e+00
      vertex   -1.585000e+02 1.222000e+02 1.000000e+00
    endloop
  endfacet
  facet normal 0.000000e+00 7.071068e-01 7.071068e-01
    outer loop
      vertex   -1.215000e+02 1.232000e+02 0.000000e+00
      vertex   -1.585000e+02 1.232000e+02 0.000000e+00
      vertex   -1.215000e+02 1.222000e+02 1.000000e+00
    endloop
  endfacet
  facet normal 0.000000e+00 7.071068e-01 7.071068e-01
    outer loop
      vertex   -1.215000e+02 1.222000e+02 1.000000e+00
      vertex   -1.585000e+02 1.232000e+02 0.000000e+00
      vertex   -1.585000e+02 1.222000e+02 1.000000e+00
    endloop
  endfacet
  facet normal 7.071068e-01 7.071068e-01 -2.050733e-16
    outer loop
      vertex   -1.585000e+02 1.222000e+02 5.000000e+01
      vertex   -1.585000e+02 1.222000e+02 1.000000e+00
      vertex   -1.595000e+02 1.232000e+02 5.000000e+01
    endloop
  endfacet
  facet normal 7.071068e-01 7.071068e-01 4.101466e-16
    outer loop
      vertex   -1.595000e+02 1.232000e+02 5.000000e+01
      vertex   -1.585000e+02 1.222000e+02 1.000000e+00
      vertex   -1.595000e+02 1.232000e+02 1.000000e+00
    endloop
  endfacet
  facet normal -5.773503e-01 -5.773503e-01 5.773503e-01
    outer loop
      vertex   -1.215000e+02 1.278000e+02 1.000000e+00
      vertex   -1.215000e+02 1.268000e+02 0.000000e+00
      vertex   -1.205000e+02 1.268000e+02 1.000000e+00
    endloop
  endfacet
  facet normal -7.071068e-01 -7.071068e-01 2.050733e-16
    outer loop
      vertex   -1.215000e+02 1.278000e+02 5.000000e+01
      vertex   -1.215000e+02 1.278000e+02 1.000000e+00
      vertex   -1.205000e+02 1.268000e+02 5.000000e+01
    endloop
  endfacet
  facet normal -7.071068e-01 -7.071068e-01 4.101466e-16
    outer loop
      vertex   -1.205000e+02 1.268000e+02 5.000000e+01
      vertex   -1.215000e+02 1.278000e+02 1.000000e+00
      vertex   -1.205000e+02 1.268000e+02 1.000000e+00
    endloop
  endfacet
  facet normal -7.071068e-01 0.000000e+00 7.071068e-01
    outer loop
      vertex   -1.215000e+02 1.268000e+02 0.000000e+00
      vertex   -1.215000e+02 1.232000e+02 0.000000e+00
      vertex   -1.205000e+02 1.268000e+02 1.000000e+00
    endloop
  endfacet
  facet normal -7.071068e-01 0.000000e+00 7.071068e-01
    outer loop
      vertex   -1.205000e+02 1.268000e+02 1.000000e+00
      vertex   -1.215000e+02 1.232000e+02 0.000000e+00
      vertex   -1.205000e+02 1.232000e+02 1.000000e+00
    endloop
  endfacet
  facet normal 5.773503e-01 -5.773503e-01 5.773503e-01
    outer loop
      vertex   -1.595000e+02 1.268000e+02 1.000000e+00
      vertex   -1.585000e+02 1.268000e+02 0.000000e+00
      vertex   -1.585000e+02 1.278000e+02 1.000000e+00
    endloop
  endfacet
  facet normal 7.071068e-01 -7.071068e-01 6.152199e-16
    outer loop
      vertex   -1.595000e+02 1.268000e+02 5.000000e+01
      vertex   -1.595000e+02 1.268000e+02 1.000000e+00
      vertex   -1.585000e+02 1.278000e+02 5.000000e+01
    endloop
  endfacet
  facet normal 7.071068e-01 -7.071068e-01 2.050733e-16
    outer loop
      vertex   -1.585000e+02 1.278000e+02 5.000000e+01
      vertex   -1.595000e+02 1.268000e+02 1.000000e+00
      vertex   -1.585000e+02 1.278000e+02 1.000000e+00
    endloop
  endfacet
  facet normal 0.000000e+00 -7.071068e-01 7.071068e-01
    outer loop
      vertex   -1.215000e+02 1.278000e+02 1.000000e+00
      vertex   -1.585000e+02 1.278000e+02 1.000000e+00
      vertex   -1.215000e+02 1.268000e+02 0.000000e+00
    endloop
  endfacet
  facet normal 0.000000e+00 -7.071068e-01 7.071068e-01
    outer loop
      vertex   -1.215000e+02 1.268000e+02 0.000000e+00
      vertex   -1.585000e+02 1.278000e+02 1.000000e+00
      vertex   -1.585000e+02 1.268000e+02 0.000000e+00
    endloop
  endfacet
  facet normal 7.071068e-01 -0.000000e+00 7.071068e-01
    outer loop
      vertex   -1.585000e+02 1.232000e+02 0.000000e+00
      vertex   -1.585000e+02 1.268000e+02 0.000000e+00
      vertex   -1.595000e+02 1.232000e+02 1.000000e+00
    endloop
  endfacet
  facet normal 7.071068e-01 0.000000e+00 7.071068e-01
    outer loop
      vertex   -1.595000e+02 1.232000e+02 1.000000e+00
      vertex   -1.585000e+02 1.268000e+02 0.000000e+00
      vertex   -1.595000e+02 1.268000e+02 1.000000e+00
    endloop
  endfacet
  facet normal -1.000000e+00 0.000000e+00 2.900174e-16
    outer loop
      vertex   -1.205000e+02 1.232000e+02 5.000000e+01
      vertex   -1.205000e+02 1.268000e+02 5.000000e+01
      vertex   -1.205000e+02 1.232000e+02 1.000000e+00
    endloop
  endfacet
  facet normal -1.000000e+00 0.000000e+00 2.900174e-16
    outer loop
      vertex   -1.205000e+02 1.232000e+02 1.000000e+00
      vertex   -1.205000e+02 1.268000e+02 5.000000e+01
      vertex   -1.205000e+02 1.268000e+02 1.000000e+00
    endloop
  endfacet
  facet normal 0.000000e+00 -1.000000e+00 2.900174e-16
    outer loop
      vertex   -1.215000e+02 1.278000e+02 5.000000e+01
      vertex   -1.585000e+02 1.278000e+02 5.000000e+01
      vertex   -1.215000e+02 1.278000e+02 1.000000e+00
    endloop
  endfacet
  facet normal 0.000000e+00 -1.000000e+00 2.900174e-16
    outer loop
      vertex   -1.215000e+02 1.278000e+02 1.000000e+00
      vertex   -1.585000e+02 1.278000e+02 5.000000e+01
      vertex   -1.585000e+02 1.278000e+02 1.000000e+00
    endloop
  endfacet
  facet normal 0.000000e+00 -0.000000e+00 1.000000e+00
    outer loop
      vertex   -1.215000e+02 1.232000e+02 0.000000e+00
      vertex   -1.215000e+02 1.268000e+02 0.000000e+00
      vertex   -1.585000e+02 1.232000e+02 0.000000e+00
    endloop
  endfacet
  facet normal 0.000000e+00 -0.000000e+00 1.000000e+00
    outer loop
      vertex   -1.585000e+02 1.232000e+02 0.000000e+00
      vertex   -1.215000e+02 1.268000e+02 0.000000e+00
      vertex   -1.585000e+02 1.268000e+02 0.000000e+00
    endloop
  endfacet
  facet normal 1.000000e+00 -0.000000e+00 5.800349e-16
    outer loop
      vertex   -1.595000e+02 1.232000e+02 1.000000e+00
      vertex   -1.595000e+02 1.268000e+02 1.000000e+00
      vertex   -1.595000e+02 1.232000e+02 5.000000e+01
    endloop
  endfacet
  facet normal 1.000000e+00 0.000000e+00 5.800349e-16
    outer loop
      vertex   -1.595000e+02 1.232000e+02 5.000000e+01
      vertex   -1.595000e+02 1.268000e+02 1.000000e+00
      vertex   -1.595000e+02 1.268000e+02 5.000000e+01
    endloop
  endfacet
  facet normal 0.000000e+00 1.000000e+00 -2.900174e-16
    outer loop
      vertex   -1.215000e+02 1.222000e+02 1.000000e+00
      vertex   -1.585000e+02 1.222000e+02 1.000000e+00
      vertex   -1.215000e+02 1.222000e+02 5.000000e+01
    endloop
  endfacet
  facet normal 0.000000e+00 1.000000e+00 -2.900174e-16
    outer loop
      vertex   -1.215000e+02 1.222000e+02 5.000000e+01
      vertex   -1.585000e+02 1.222000e+02 1.000000e+00
      vertex   -1.585000e+02 1.222000e+02 5.000000e+01
    endloop
  endfacet
  facet normal -1.000000e+00 0.000000e+00 0.000000e+00
    outer loop
      vertex   -1.610000e+02 1.225787e+02 5.232441e-01
      vertex   -1.610000e+02 1.225787e+02 5.000000e+01
      vertex   -1.610000e+02 1.227232e+02 3.786797e-01
    endloop
  endfacet
  facet normal -1.000000e+00 0.000000e+00 0.000000e+00
    outer loop
      vertex   -1.610000e+02 1.227232e+02 3.786797e-01
      vertex   -1.610000e+02 1.225787e+02 5.000000e+01
      vertex   -1.610000e+02 1.274213e+02 5.000000e+01
    endloop
  endfacet
  facet normal -1.000000e+00 0.000000e+00 -0.000000e+00
    outer loop
      vertex   -1.610000e+02 1.272768e+02 3.786797e-01
      vertex   -1.610000e+02 1.274213e+02 5.000000e+01
      vertex   -1.610000e+02 1.274213e+02 5.232441e-01
    endloop
  endfacet
  facet normal -1.000000e+00 -0.000000e+00 0.000000e+00
    outer loop
      vertex   -1.610000e+02 1.272768e+02 3.786797e-01
      vertex   -1.610000e+02 1.227232e+02 3.786797e-01
      vertex   -1.610000e+02 1.274213e+02 5.000000e+01
    endloop
  endfacet
  facet normal -5.773503e-01 -5.773503e-01 -5.773503e-01
    outer loop
      vertex   -1.591213e+02 1.207000e+02 5.232441e-01
      vertex   -1.610000e+02 1.225787e+02 5.232441e-01
      vertex   -1.589768e+02 1.207000e+02 3.786797e-01
    endloop
  endfacet
  facet normal -5.773503e-01 -5.773503e-01 -5.773503e-01
    outer loop
      vertex   -1.589768e+02 1.207000e+02 3.786797e-01
      vertex   -1.610000e+02 1.225787e+02 5.232441e-01
      vertex   -1.610000e+02 1.227232e+02 3.786797e-01
    endloop
  endfacet
  facet normal -5.773503e-01 -5.773503e-01 -5.773503e-01
    outer loop
      vertex   -1.589768e+02 1.225787e+02 -1.500000e+00
      vertex   -1.610000e+02 1.227232e+02 3.786797e-01
      vertex   -1.591213e+02 1.227232e+02 -1.500000e+00
    endloop
  endfacet
  facet normal -5.773503e-01 -5.773503e-01 -5.773503e-01
    outer loop
      vertex   -1.589768e+02 1.225787e+02 -1.500000e+00
      vertex   -1.589768e+02 1.207000e+02 3.786797e-01
      vertex   -1.610000e+02 1.227232e+02 3.786797e-01
    endloop
  endfacet
  facet normal 1.971768e-13 1.000000e+00 -5.744457e-16
    outer loop
      vertex   -1.208787e+02 1.293000e+02 5.232441e-01
      vertex   -1.210232e+02 1.293000e+02 3.786797e-01
      vertex   -1.208787e+02 1.293000e+02 5.000000e+01
    endloop
  endfacet
  facet normal 0.000000e+00 1.000000e+00 0.000000e+00
    outer loop
      vertex   -1.208787e+02 1.293000e+02 5.000000e+01
      vertex   -1.210232e+02 1.293000e+02 3.786797e-01
      vertex   -1.591213e+02 1.293000e+02 5.000000e+01
    endloop
  endfacet
  facet normal 0.000000e+00 1.000000e+00 0.000000e+00
    outer loop
      vertex   -1.591213e+02 1.293000e+02 5.000000e+01
      vertex   -1.210232e+02 1.293000e+02 3.786797e-01
      vertex   -1.589768e+02 1.293000e+02 3.786797e-01
    endloop
  endfacet
  facet normal -0.000000e+00 1.000000e+00 0.000000e+00
    outer loop
      vertex   -1.591213e+02 1.293000e+02 5.232441e-01
      vertex   -1.591213e+02 1.293000e+02 5.000000e+01
      vertex   -1.589768e+02 1.293000e+02 3.786797e-01
    endloop
  endfacet
  facet normal 5.773503e-01 5.773503e-01 -5.773503e-01
    outer loop
      vertex   -1.208787e+02 1.293000e+02 5.232441e-01
      vertex   -1.190000e+02 1.274213e+02 5.232441e-01
      vertex   -1.210232e+02 1.293000e+02 3.786797e-01
    endloop
  endfacet
  facet normal 5.773503e-01 5.773503e-01 -5.773503e-01
    outer loop
      vertex   -1.210232e+02 1.293000e+02 3.786797e-01
      vertex   -1.190000e+02 1.274213e+02 5.232441e-01
      vertex   -1.190000e+02 1.272768e+02 3.786797e-01
    endloop
  endfacet
  facet normal 5.773503e-01 5.773503e-01 -5.773503e-01
    outer loop
      vertex   -1.210232e+02 1.274213e+02 -1.500000e+00
      vertex   -1.190000e+02 1.272768e+02 3.786797e-01
      vertex   -1.208787e+02 1.272768e+02 -1.500000e+00
    endloop
  endfacet
  facet normal 5.773503e-01 5.773503e-01 -5.773503e-01
    outer loop
      vertex   -1.210232e+02 1.274213e+02 -1.500000e+00
      vertex   -1.210232e+02 1.293000e+02 3.786797e-01
      vertex   -1.190000e+02 1.272768e+02 3.786797e-01
    endloop
  endfacet
  facet normal -5.773503e-01 5.773503e-01 -5.773503e-01
    outer loop
      vertex   -1.610000e+02 1.274213e+02 5.232441e-01
      vertex   -1.591213e+02 1.293000e+02 5.232441e-01
      vertex   -1.610000e+02 1.272768e+02 3.786797e-01
    endloop
  endfacet
  facet normal -5.773503e-01 5.773503e-01 -5.773503e-01
    outer loop
      vertex   -1.610000e+02 1.272768e+02 3.786797e-01
      vertex   -1.591213e+02 1.293000e+02 5.232441e-01
      vertex   -1.589768e+02 1.293000e+02 3.786797e-01
    endloop
  endfacet
  facet normal -5.773503e-01 5.773503e-01 -5.773503e-01
    outer loop
      vertex   -1.591213e+02 1.272768e+02 -1.500000e+00
      vertex   -1.589768e+02 1.293000e+02 3.786797e-01
      vertex   -1.589768e+02 1.274213e+02 -1.500000e+00
    endloop
  endfacet
  facet normal -5.773503e-01 5.773503e-01 -5.773503e-01
    outer loop
      vertex   -1.591213e+02 1.272768e+02 -1.500000e+00
      vertex   -1.610000e+02 1.272768e+02 3.786797e-01
      vertex   -1.589768e+02 1.293000e+02 3.786797e-01
    endloop
  endfacet
  facet normal 5.773503e-01 -5.773503e-01 -5.773503e-01
    outer loop
      vertex   -1.190000e+02 1.225787e+02 5.232441e-01
      vertex   -1.208787e+02 1.207000e+02 5.232441e-01
      vertex   -1.190000e+02 1.227232e+02 3.786797e-01
    endloop
  endfacet
  facet normal 5.773503e-01 -5.773503e-01 -5.773503e-01
    outer loop
      vertex   -1.190000e+02 1.227232e+02 3.786797e-01
      vertex   -1.208787e+02 1.207000e+02 5.232441e-01
      vertex   -1.210232e+02 1.207000e+02 3.786797e-01
    endloop
  endfacet
  facet normal 5.773503e-01 -5.773503e-01 -5.773503e-01
    outer loop
      vertex   -1.208787e+02 1.227232e+02 -1.500000e+00
      vertex   -1.210232e+02 1.207000e+02 3.786797e-01
      vertex   -1.210232e+02 1.225787e+02 -1.500000e+00
    endloop
  endfacet
  facet normal 5.773503e-01 -5.773503e-01 -5.773503e-01
    outer loop
      vertex   -1.208787e+02 1.227232e+02 -1.500000e+00
      vertex   -1.190000e+02 1.227232e+02 3.786797e-01
      vertex   -1.210232e+02 1.207000e+02 3.786797e-01
    endloop
  endfacet
  facet normal -2.457183e-16 2.482101e-14 -1.000000e+00
    outer loop
      vertex   -1.210232e+02 1.225787e+02 -1.500000e+00
      vertex   -1.589768e+02 1.225787e+02 -1.500000e+00
      vertex   -1.208787e+02 1.227232e+02 -1.500000e+00
    endloop
  endfacet
  facet normal 9.870548e-17 -6.594738e-14 -1.000000e+00
    outer loop
      vertex   -1.208787e+02 1.227232e+02 -1.500000e+00
      vertex   -1.589768e+02 1.225787e+02 -1.500000e+00
      vertex   -1.591213e+02 1.227232e+02 -1.500000e+00
    endloop
  endfacet
  facet normal 9.870548e-17 -1.560428e-15 -1.000000e+00
    outer loop
      vertex   -1.591213e+02 1.272768e+02 -1.500000e+00
      vertex   -1.208787e+02 1.227232e+02 -1.500000e+00
      vertex   -1.591213e+02 1.227232e+02 -1.500000e+00
    endloop
  endfacet
  facet normal 1.393489e-16 -1.219084e-15 -1.000000e+00
    outer loop
      vertex   -1.591213e+02 1.272768e+02 -1.500000e+00
      vertex   -1.208787e+02 1.272768e+02 -1.500000e+00
      vertex   -1.208787e+02 1.227232e+02 -1.500000e+00
    endloop
  endfacet
  facet normal 1.393489e-16 4.286741e-14 -1.000000e+00
    outer loop
      vertex   -1.591213e+02 1.272768e+02 -1.500000e+00
      vertex   -1.589768e+02 1.274213e+02 -1.500000e+00
      vertex   -1.208787e+02 1.272768e+02 -1.500000e+00
    endloop
  endfacet
  facet normal -5.850436e-17 -9.274237e-15 -1.000000e+00
    outer loop
      vertex   -1.208787e+02 1.272768e+02 -1.500000e+00
      vertex   -1.589768e+02 1.274213e+02 -1.500000e+00
      vertex   -1.210232e+02 1.274213e+02 -1.500000e+00
    endloop
  endfacet
  facet normal 7.071068e-01 -7.071068e-01 -4.053989e-16
    outer loop
      vertex   -1.190000e+02 1.225787e+02 5.000000e+01
      vertex   -1.208787e+02 1.207000e+02 5.000000e+01
      vertex   -1.190000e+02 1.225787e+02 5.232441e-01
    endloop
  endfacet
  facet normal 7.071068e-01 -7.071068e-01 -4.061944e-16
    outer loop
      vertex   -1.190000e+02 1.225787e+02 5.232441e-01
      vertex   -1.208787e+02 1.207000e+02 5.000000e+01
      vertex   -1.208787e+02 1.207000e+02 5.232441e-01
    endloop
  endfacet
  facet normal -1.499620e-16 -7.071068e-01 -7.071068e-01
    outer loop
      vertex   -1.210232e+02 1.207000e+02 3.786797e-01
      vertex   -1.589768e+02 1.207000e+02 3.786797e-01
      vertex   -1.210232e+02 1.225787e+02 -1.500000e+00
    endloop
  endfacet
  facet normal -4.359992e-16 -7.071068e-01 -7.071068e-01
    outer loop
      vertex   -1.210232e+02 1.225787e+02 -1.500000e+00
      vertex   -1.589768e+02 1.207000e+02 3.786797e-01
      vertex   -1.589768e+02 1.225787e+02 -1.500000e+00
    endloop
  endfacet
  facet normal -7.071068e-01 -7.071068e-01 -4.053989e-16
    outer loop
      vertex   -1.610000e+02 1.225787e+02 5.232441e-01
      vertex   -1.591213e+02 1.207000e+02 5.232441e-01
      vertex   -1.610000e+02 1.225787e+02 5.000000e+01
    endloop
  endfacet
  facet normal -7.071068e-01 -7.071068e-01 0.000000e+00
    outer loop
      vertex   -1.610000e+02 1.225787e+02 5.000000e+01
      vertex   -1.591213e+02 1.207000e+02 5.232441e-01
      vertex   -1.591213e+02 1.207000e+02 5.000000e+01
    endloop
  endfacet
  facet normal 7.071068e-01 7.071068e-01 -6.080983e-16
    outer loop
      vertex   -1.208787e+02 1.293000e+02 5.000000e+01
      vertex   -1.190000e+02 1.274213e+02 5.000000e+01
      vertex   -1.208787e+02 1.293000e+02 5.232441e-01
    endloop
  endfacet
  facet normal 7.071068e-01 7.071068e-01 2.030972e-16
    outer loop
      vertex   -1.208787e+02 1.293000e+02 5.232441e-01
      vertex   -1.190000e+02 1.274213e+02 5.000000e+01
      vertex   -1.190000e+02 1.274213e+02 5.232441e-01
    endloop
  endfacet
  facet normal 7.071068e-01 -8.620228e-16 -7.071068e-01
    outer loop
      vertex   -1.208787e+02 1.227232e+02 -1.500000e+00
      vertex   -1.208787e+02 1.272768e+02 -1.500000e+00
      vertex   -1.190000e+02 1.227232e+02 3.786797e-01
    endloop
  endfacet
  facet normal 7.071068e-01 2.753070e-15 -7.071068e-01
    outer loop
      vertex   -1.190000e+02 1.227232e+02 3.786797e-01
      vertex   -1.208787e+02 1.272768e+02 -1.500000e+00
      vertex   -1.190000e+02 1.272768e+02 3.786797e-01
    endloop
  endfacet
  facet normal -7.071068e-01 7.071068e-01 -2.026994e-16
    outer loop
      vertex   -1.610000e+02 1.274213e+02 5.000000e+01
      vertex   -1.591213e+02 1.293000e+02 5.000000e+01
      vertex   -1.610000e+02 1.274213e+02 5.232441e-01
    endloop
  endfacet
  facet normal -7.071068e-01 7.071068e-01 4.061944e-16
    outer loop
      vertex   -1.610000e+02 1.274213e+02 5.232441e-01
      vertex   -1.591213e+02 1.293000e+02 5.000000e+01
      vertex   -1.591213e+02 1.293000e+02 5.232441e-01
    endloop
  endfacet
  facet normal -4.136883e-17 7.071068e-01 -7.071068e-01
    outer loop
      vertex   -1.210232e+02 1.274213e+02 -1.500000e+00
      vertex   -1.589768e+02 1.274213e+02 -1.500000e+00
      vertex   -1.210232e+02 1.293000e+02 3.786797e-01
    endloop
  endfacet
  facet normal -7.046452e-17 7.071068e-01 -7.071068e-01
    outer loop
      vertex   -1.210232e+02 1.293000e+02 3.786797e-01
      vertex   -1.589768e+02 1.274213e+02 -1.500000e+00
      vertex   -1.589768e+02 1.293000e+02 3.786797e-01
    endloop
  endfacet
  facet normal -7.071068e-01 1.775767e-15 -7.071068e-01
    outer loop
      vertex   -1.610000e+02 1.227232e+02 3.786797e-01
      vertex   -1.610000e+02 1.272768e+02 3.786797e-01
      vertex   -1.591213e+02 1.227232e+02 -1.500000e+00
    endloop
  endfacet
  facet normal -7.071068e-01 3.303684e-15 -7.071068e-01
    outer loop
      vertex   -1.591213e+02 1.227232e+02 -1.500000e+00
      vertex   -1.610000e+02 1.272768e+02 3.786797e-01
      vertex   -1.591213e+02 1.272768e+02 -1.500000e+00
    endloop
  endfacet
  facet normal 1.000000e+00 0.000000e+00 0.000000e+00
    outer loop
      vertex   -1.190000e+02 1.274213e+02 5.232441e-01
      vertex   -1.190000e+02 1.274213e+02 5.000000e+01
      vertex   -1.190000e+02 1.272768e+02 3.786797e-01
    endloop
  endfacet
  facet normal 1.000000e+00 0.000000e+00 -0.000000e+00
    outer loop
      vertex   -1.190000e+02 1.272768e+02 3.786797e-01
      vertex   -1.190000e+02 1.274213e+02 5.000000e+01
      vertex   -1.190000e+02 1.225787e+02 5.000000e+01
    endloop
  endfacet
  facet normal 1.000000e+00 0.000000e+00 0.000000e+00
    outer loop
      vertex   -1.190000e+02 1.227232e+02 3.786797e-01
      vertex   -1.190000e+02 1.225787e+02 5.000000e+01
      vertex   -1.190000e+02 1.225787e+02 5.232441e-01
    endloop
  endfacet
  facet normal 1.000000e+00 0.000000e+00 -0.000000e+00
    outer loop
      vertex   -1.190000e+02 1.227232e+02 3.786797e-01
      vertex   -1.190000e+02 1.272768e+02 3.786797e-01
      vertex   -1.190000e+02 1.225787e+02 5.000000e+01
    endloop
  endfacet
  facet normal 0.000000e+00 0.000000e+00 1.000000e+00
    outer loop
      vertex   -1.585000e+02 1.278000e+02 5.000000e+01
      vertex   -1.610000e+02 1.274213e+02 5.000000e+01
      vertex   -1.595000e+02 1.268000e+02 5.000000e+01
    endloop
  endfacet
  facet normal 0.000000e+00 0.000000e+00 1.000000e+00
    outer loop
      vertex   -1.585000e+02 1.278000e+02 5.000000e+01
      vertex   -1.591213e+02 1.293000e+02 5.000000e+01
      vertex   -1.610000e+02 1.274213e+02 5.000000e+01
    endloop
  endfacet
  facet normal 0.000000e+00 -0.000000e+00 1.000000e+00
    outer loop
      vertex   -1.585000e+02 1.278000e+02 5.000000e+01
      vertex   -1.215000e+02 1.278000e+02 5.000000e+01
      vertex   -1.591213e+02 1.293000e+02 5.000000e+01
    endloop
  endfacet
  facet normal -0.000000e+00 0.000000e+00 1.000000e+00
    outer loop
      vertex   -1.591213e+02 1.293000e+02 5.000000e+01
      vertex   -1.215000e+02 1.278000e+02 5.000000e+01
      vertex   -1.208787e+02 1.293000e+02 5.000000e+01
    endloop
  endfacet
  facet normal 0.000000e+00 0.000000e+00 1.000000e+00
    outer loop
      vertex   -1.208787e+02 1.293000e+02 5.000000e+01
      vertex   -1.215000e+02 1.278000e+02 5.000000e+01
      vertex   -1.190000e+02 1.274213e+02 5.000000e+01
    endloop
  endfacet
  facet normal 0.000000e+00 0.000000e+00 1.000000e+00
    outer loop
      vertex   -1.190000e+02 1.274213e+02 5.000000e+01
      vertex   -1.215000e+02 1.278000e+02 5.000000e+01
      vertex   -1.205000e+02 1.268000e+02 5.000000e+01
    endloop
  endfacet
  facet normal 0.000000e+00 -0.000000e+00 1.000000e+00
    outer loop
      vertex   -1.205000e+02 1.232000e+02 5.000000e+01
      vertex   -1.190000e+02 1.274213e+02 5.000000e+01
      vertex   -1.205000e+02 1.268000e+02 5.000000e+01
    endloop
  endfacet
  facet normal -0.000000e+00 0.000000e+00 1.000000e+00
    outer loop
      vertex   -1.205000e+02 1.232000e+02 5.000000e+01
      vertex   -1.190000e+02 1.225787e+02 5.000000e+01
      vertex   -1.190000e+02 1.274213e+02 5.000000e+01
    endloop
  endfacet
  facet normal -0.000000e+00 0.000000e+00 1.000000e+00
    outer loop
      vertex   -1.205000e+02 1.232000e+02 5.000000e+01
      vertex   -1.215000e+02 1.222000e+02 5.000000e+01
      vertex   -1.190000e+02 1.225787e+02 5.000000e+01
    endloop
  endfacet
  facet normal 0.000000e+00 0.000000e+00 1.000000e+00
    outer loop
      vertex   -1.190000e+02 1.225787e+02 5.000000e+01
      vertex   -1.215000e+02 1.222000e+02 5.000000e+01
      vertex   -1.208787e+02 1.207000e+02 5.000000e+01
    endloop
  endfacet
  facet normal 0.000000e+00 0.000000e+00 1.000000e+00
    outer loop
      vertex   -1.208787e+02 1.207000e+02 5.000000e+01
      vertex   -1.215000e+02 1.222000e+02 5.000000e+01
      vertex   -1.591213e+02 1.207000e+02 5.000000e+01
    endloop
  endfacet
  facet normal 0.000000e+00 -0.000000e+00 1.000000e+00
    outer loop
      vertex   -1.591213e+02 1.207000e+02 5.000000e+01
      vertex   -1.215000e+02 1.222000e+02 5.000000e+01
      vertex   -1.585000e+02 1.222000e+02 5.000000e+01
    endloop
  endfacet
  facet normal -0.000000e+00 -0.000000e+00 1.000000e+00
    outer loop
      vertex   -1.610000e+02 1.225787e+02 5.000000e+01
      vertex   -1.585000e+02 1.222000e+02 5.000000e+01
      vertex   -1.595000e+02 1.232000e+02 5.000000e+01
    endloop
  endfacet
  facet normal -0.000000e+00 0.000000e+00 1.000000e+00
    outer loop
      vertex   -1.595000e+02 1.268000e+02 5.000000e+01
      vertex   -1.610000e+02 1.225787e+02 5.000000e+01
      vertex   -1.595000e+02 1.232000e+02 5.000000e+01
    endloop
  endfacet
  facet normal 0.000000e+00 0.000000e+00 1.000000e+00
    outer loop
      vertex   -1.595000e+02 1.268000e+02 5.000000e+01
      vertex   -1.610000e+02 1.274213e+02 5.000000e+01
      vertex   -1.610000e+02 1.225787e+02 5.000000e+01
    endloop
  endfacet
  facet normal 0.000000e+00 -0.000000e+00 1.000000e+00
    outer loop
      vertex   -1.591213e+02 1.207000e+02 5.000000e+01
      vertex   -1.585000e+02 1.222000e+02 5.000000e+01
      vertex   -1.610000e+02 1.225787e+02 5.000000e+01
    endloop
  endfacet
  facet normal 1.966023e-13 -1.000000e+00 0.000000e+00
    outer loop
      vertex   -1.591213e+02 1.207000e+02 5.232441e-01
      vertex   -1.589768e+02 1.207000e+02 3.786797e-01
      vertex   -1.591213e+02 1.207000e+02 5.000000e+01
    endloop
  endfacet
  facet normal 0.000000e+00 -1.000000e+00 -5.727721e-16
    outer loop
      vertex   -1.591213e+02 1.207000e+02 5.000000e+01
      vertex   -1.589768e+02 1.207000e+02 3.786797e-01
      vertex   -1.208787e+02 1.207000e+02 5.000000e+01
    endloop
  endfacet
  facet normal -1.214726e-31 -1.000000e+00 -5.727721e-16
    outer loop
      vertex   -1.208787e+02 1.207000e+02 5.000000e+01
      vertex   -1.589768e+02 1.207000e+02 3.786797e-01
      vertex   -1.210232e+02 1.207000e+02 3.786797e-01
    endloop
  endfacet
  facet normal 5.744457e-16 -1.000000e+00 -5.744457e-16
    outer loop
      vertex   -1.208787e+02 1.207000e+02 5.232441e-01
      vertex   -1.208787e+02 1.207000e+02 5.000000e+01
      vertex   -1.210232e+02 1.207000e+02 3.786797e-01
    endloop
  endfacet
endsolid
