solid ascii
  facet normal 5.773503e-01 -5.773503e-01 5.773503e-01
    outer loop
      vertex   -2.390000e+02 1.278000e+02 1.000000e+00
      vertex   -2.380000e+02 1.278000e+02 -6.217249e-16
      vertex   -2.380000e+02 1.288000e+02 1.000000e+00
    endloop
  endfacet
  facet normal 7.071068e-01 -7.071068e-01 -4.101466e-16
    outer loop
      vertex   -2.390000e+02 1.278000e+02 5.000000e+01
      vertex   -2.390000e+02 1.278000e+02 1.000000e+00
      vertex   -2.380000e+02 1.288000e+02 5.000000e+01
    endloop
  endfacet
  facet normal 7.071068e-01 -7.071068e-01 0.000000e+00
    outer loop
      vertex   -2.380000e+02 1.288000e+02 5.000000e+01
      vertex   -2.390000e+02 1.278000e+02 1.000000e+00
      vertex   -2.380000e+02 1.288000e+02 1.000000e+00
    endloop
  endfacet
  facet normal -5.773503e-01 -5.773503e-01 5.773503e-01
    outer loop
      vertex   -1.884000e+02 1.288000e+02 1.000000e+00
      vertex   -1.884000e+02 1.278000e+02 -5.551115e-16
      vertex   -1.874000e+02 1.278000e+02 1.000000e+00
    endloop
  endfacet
  facet normal -7.071068e-01 -7.071068e-01 -0.000000e+00
    outer loop
      vertex   -1.884000e+02 1.288000e+02 5.000000e+01
      vertex   -1.884000e+02 1.288000e+02 1.000000e+00
      vertex   -1.874000e+02 1.278000e+02 5.000000e+01
    endloop
  endfacet
  facet normal -7.071068e-01 -7.071068e-01 0.000000e+00
    outer loop
      vertex   -1.874000e+02 1.278000e+02 5.000000e+01
      vertex   -1.884000e+02 1.288000e+02 1.000000e+00
      vertex   -1.874000e+02 1.278000e+02 1.000000e+00
    endloop
  endfacet
  facet normal 5.773503e-01 5.773503e-01 5.773503e-01
    outer loop
      vertex   -2.380000e+02 1.222000e+02 5.551115e-16
      vertex   -2.390000e+02 1.222000e+02 1.000000e+00
      vertex   -2.380000e+02 1.212000e+02 1.000000e+00
    endloop
  endfacet
  facet normal -5.773503e-01 5.773503e-01 5.773503e-01
    outer loop
      vertex   -1.874000e+02 1.222000e+02 1.000000e+00
      vertex   -1.884000e+02 1.222000e+02 6.217249e-16
      vertex   -1.884000e+02 1.212000e+02 1.000000e+00
    endloop
  endfacet
  facet normal -7.071068e-01 7.071068e-01 0.000000e+00
    outer loop
      vertex   -1.874000e+02 1.222000e+02 5.000000e+01
      vertex   -1.874000e+02 1.222000e+02 1.000000e+00
      vertex   -1.884000e+02 1.212000e+02 5.000000e+01
    endloop
  endfacet
  facet normal -7.071068e-01 7.071068e-01 0.000000e+00
    outer loop
      vertex   -1.884000e+02 1.212000e+02 5.000000e+01
      vertex   -1.874000e+02 1.222000e+02 1.000000e+00
      vertex   -1.884000e+02 1.212000e+02 1.000000e+00
    endloop
  endfacet
  facet normal -6.331018e-18 7.071068e-01 7.071068e-01
    outer loop
      vertex   -2.380000e+02 1.212000e+02 1.000000e+00
      vertex   -1.884000e+02 1.212000e+02 1.000000e+00
      vertex   -2.380000e+02 1.222000e+02 5.551115e-16
    endloop
  endfacet
  facet normal -3.165509e-18 7.071068e-01 7.071068e-01
    outer loop
      vertex   -2.380000e+02 1.222000e+02 5.551115e-16
      vertex   -1.884000e+02 1.212000e+02 1.000000e+00
      vertex   -1.884000e+02 1.222000e+02 6.217249e-16
    endloop
  endfacet
  facet normal -7.071068e-01 5.607473e-17 7.071068e-01
    outer loop
      vertex   -1.874000e+02 1.278000e+02 1.000000e+00
      vertex   -1.884000e+02 1.278000e+02 -5.551115e-16
      vertex   -1.874000e+02 1.222000e+02 1.000000e+00
    endloop
  endfacet
  facet normal -7.071068e-01 1.485980e-16 7.071068e-01
    outer loop
      vertex   -1.874000e+02 1.222000e+02 1.000000e+00
      vertex   -1.884000e+02 1.278000e+02 -5.551115e-16
      vertex   -1.884000e+02 1.222000e+02 6.217249e-16
    endloop
  endfacet
  facet normal 7.071068e-01 7.071068e-01 0.000000e+00
    outer loop
      vertex   -2.380000e+02 1.212000e+02 5.000000e+01
      vertex   -2.380000e+02 1.212000e+02 1.000000e+00
      vertex   -2.390000e+02 1.222000e+02 5.000000e+01
    endloop
  endfacet
  facet normal 7.071068e-01 7.071068e-01 -4.101466e-16
    outer loop
      vertex   -2.390000e+02 1.222000e+02 5.000000e+01
      vertex   -2.380000e+02 1.212000e+02 1.000000e+00
      vertex   -2.390000e+02 1.222000e+02 1.000000e+00
    endloop
  endfacet
  facet normal 7.071068e-01 1.401868e-16 7.071068e-01
    outer loop
      vertex   -2.380000e+02 1.278000e+02 -6.217249e-16
      vertex   -2.390000e+02 1.278000e+02 1.000000e+00
      vertex   -2.380000e+02 1.222000e+02 5.551115e-16
    endloop
  endfacet
  facet normal 7.071068e-01 5.607473e-17 7.071068e-01
    outer loop
      vertex   -2.380000e+02 1.222000e+02 5.551115e-16
      vertex   -2.390000e+02 1.278000e+02 1.000000e+00
      vertex   -2.390000e+02 1.222000e+02 1.000000e+00
    endloop
  endfacet
  facet normal -9.496527e-19 -7.071068e-01 7.071068e-01
    outer loop
      vertex   -2.380000e+02 1.278000e+02 -6.217249e-16
      vertex   -1.884000e+02 1.278000e+02 -5.551115e-16
      vertex   -2.380000e+02 1.288000e+02 1.000000e+00
    endloop
  endfacet
  facet normal 3.165509e-17 -7.071068e-01 7.071068e-01
    outer loop
      vertex   -2.380000e+02 1.288000e+02 1.000000e+00
      vertex   -1.884000e+02 1.278000e+02 -5.551115e-16
      vertex   -1.884000e+02 1.288000e+02 1.000000e+00
    endloop
  endfacet
  facet normal -0.000000e+00 -1.000000e+00 -0.000000e+00
    outer loop
      vertex   -1.884000e+02 1.288000e+02 5.000000e+01
      vertex   -2.380000e+02 1.288000e+02 5.000000e+01
      vertex   -1.884000e+02 1.288000e+02 1.000000e+00
    endloop
  endfacet
  facet normal -0.000000e+00 -1.000000e+00 -0.000000e+00
    outer loop
      vertex   -1.884000e+02 1.288000e+02 1.000000e+00
      vertex   -2.380000e+02 1.288000e+02 5.000000e+01
      vertex   -2.380000e+02 1.288000e+02 1.000000e+00
    endloop
  endfacet
  facet normal 1.000000e+00 0.000000e+00 -5.800349e-16
    outer loop
      vertex   -2.390000e+02 1.278000e+02 5.000000e+01
      vertex   -2.390000e+02 1.222000e+02 5.000000e+01
      vertex   -2.390000e+02 1.278000e+02 1.000000e+00
    endloop
  endfacet
  facet normal 1.000000e+00 0.000000e+00 -5.800349e-16
    outer loop
      vertex   -2.390000e+02 1.278000e+02 1.000000e+00
      vertex   -2.390000e+02 1.222000e+02 5.000000e+01
      vertex   -2.390000e+02 1.222000e+02 1.000000e+00
    endloop
  endfacet
  facet normal -1.343012e-18 2.101494e-16 1.000000e+00
    outer loop
      vertex   -1.884000e+02 1.222000e+02 6.217249e-16
      vertex   -1.884000e+02 1.278000e+02 -5.551115e-16
      vertex   -2.380000e+02 1.222000e+02 5.551115e-16
    endloop
  endfacet
  facet normal -1.343012e-18 2.101494e-16 1.000000e+00
    outer loop
      vertex   -2.380000e+02 1.222000e+02 5.551115e-16
      vertex   -1.884000e+02 1.278000e+02 -5.551115e-16
      vertex   -2.380000e+02 1.278000e+02 -6.217249e-16
    endloop
  endfacet
  facet normal 0.000000e+00 1.000000e+00 -0.000000e+00
    outer loop
      vertex   -1.884000e+02 1.212000e+02 1.000000e+00
      vertex   -2.380000e+02 1.212000e+02 1.000000e+00
      vertex   -1.884000e+02 1.212000e+02 5.000000e+01
    endloop
  endfacet
  facet normal 0.000000e+00 1.000000e+00 -0.000000e+00
    outer loop
      vertex   -1.884000e+02 1.212000e+02 5.000000e+01
      vertex   -2.380000e+02 1.212000e+02 1.000000e+00
      vertex   -2.380000e+02 1.212000e+02 5.000000e+01
    endloop
  endfacet
  facet normal -1.000000e+00 0.000000e+00 0.000000e+00
    outer loop
      vertex   -1.874000e+02 1.278000e+02 1.000000e+00
      vertex   -1.874000e+02 1.222000e+02 1.000000e+00
      vertex   -1.874000e+02 1.278000e+02 5.000000e+01
    endloop
  endfacet
  facet normal -1.000000e+00 -0.000000e+00 0.000000e+00
    outer loop
      vertex   -1.874000e+02 1.278000e+02 5.000000e+01
      vertex   -1.874000e+02 1.222000e+02 1.000000e+00
      vertex   -1.874000e+02 1.222000e+02 5.000000e+01
    endloop
  endfacet
  facet normal 1.000000e+00 0.000000e+00 -0.000000e+00
    outer loop
      vertex   -1.859000e+02 1.284213e+02 5.232441e-01
      vertex   -1.859000e+02 1.284213e+02 5.000000e+01
      vertex   -1.859000e+02 1.282768e+02 3.786797e-01
    endloop
  endfacet
  facet normal 1.000000e+00 0.000000e+00 -0.000000e+00
    outer loop
      vertex   -1.859000e+02 1.282768e+02 3.786797e-01
      vertex   -1.859000e+02 1.284213e+02 5.000000e+01
      vertex   -1.859000e+02 1.215787e+02 5.000000e+01
    endloop
  endfacet
  facet normal 1.000000e+00 0.000000e+00 0.000000e+00
    outer loop
      vertex   -1.859000e+02 1.217232e+02 3.786797e-01
      vertex   -1.859000e+02 1.215787e+02 5.000000e+01
      vertex   -1.859000e+02 1.215787e+02 5.232441e-01
    endloop
  endfacet
  facet normal 1.000000e+00 -0.000000e+00 -0.000000e+00
    outer loop
      vertex   -1.859000e+02 1.217232e+02 3.786797e-01
      vertex   -1.859000e+02 1.282768e+02 3.786797e-01
      vertex   -1.859000e+02 1.215787e+02 5.000000e+01
    endloop
  endfacet
  facet normal 5.773503e-01 5.773503e-01 -5.773503e-01
    outer loop
      vertex   -1.859000e+02 1.282768e+02 3.786797e-01
      vertex   -1.877787e+02 1.282768e+02 -1.500000e+00
      vertex   -1.859000e+02 1.284213e+02 5.232441e-01
    endloop
  endfacet
  facet normal 5.773503e-01 5.773503e-01 -5.773503e-01
    outer loop
      vertex   -1.859000e+02 1.284213e+02 5.232441e-01
      vertex   -1.877787e+02 1.282768e+02 -1.500000e+00
      vertex   -1.879232e+02 1.284213e+02 -1.500000e+00
    endloop
  endfacet
  facet normal 5.773503e-01 5.773503e-01 -5.773503e-01
    outer loop
      vertex   -1.877787e+02 1.303000e+02 5.232441e-01
      vertex   -1.879232e+02 1.284213e+02 -1.500000e+00
      vertex   -1.879232e+02 1.303000e+02 3.786797e-01
    endloop
  endfacet
  facet normal 5.773503e-01 5.773503e-01 -5.773503e-01
    outer loop
      vertex   -1.877787e+02 1.303000e+02 5.232441e-01
      vertex   -1.859000e+02 1.284213e+02 5.232441e-01
      vertex   -1.879232e+02 1.284213e+02 -1.500000e+00
    endloop
  endfacet
  facet normal -3.713180e-29 1.000000e+00 1.966023e-13
    outer loop
      vertex   -1.879232e+02 1.303000e+02 3.786797e-01
      vertex   -2.384768e+02 1.303000e+02 3.786797e-01
      vertex   -1.877787e+02 1.303000e+02 5.232441e-01
    endloop
  endfacet
  facet normal 5.590132e-16 1.000000e+00 5.590132e-16
    outer loop
      vertex   -1.877787e+02 1.303000e+02 5.232441e-01
      vertex   -2.384768e+02 1.303000e+02 3.786797e-01
      vertex   -2.386213e+02 1.303000e+02 5.232441e-01
    endloop
  endfacet
  facet normal 0.000000e+00 1.000000e+00 0.000000e+00
    outer loop
      vertex   -1.877787e+02 1.303000e+02 5.000000e+01
      vertex   -2.386213e+02 1.303000e+02 5.232441e-01
      vertex   -2.386213e+02 1.303000e+02 5.000000e+01
    endloop
  endfacet
  facet normal 5.590132e-16 1.000000e+00 -5.744457e-16
    outer loop
      vertex   -1.877787e+02 1.303000e+02 5.000000e+01
      vertex   -1.877787e+02 1.303000e+02 5.232441e-01
      vertex   -2.386213e+02 1.303000e+02 5.232441e-01
    endloop
  endfacet
  facet normal 0.000000e+00 -1.000000e+00 0.000000e+00
    outer loop
      vertex   -2.384768e+02 1.197000e+02 3.786797e-01
      vertex   -1.879232e+02 1.197000e+02 3.786797e-01
      vertex   -2.386213e+02 1.197000e+02 5.232441e-01
    endloop
  endfacet
  facet normal 0.000000e+00 -1.000000e+00 0.000000e+00
    outer loop
      vertex   -2.386213e+02 1.197000e+02 5.232441e-01
      vertex   -1.879232e+02 1.197000e+02 3.786797e-01
      vertex   -1.877787e+02 1.197000e+02 5.232441e-01
    endloop
  endfacet
  facet normal 0.000000e+00 -1.000000e+00 0.000000e+00
    outer loop
      vertex   -2.386213e+02 1.197000e+02 5.000000e+01
      vertex   -1.877787e+02 1.197000e+02 5.232441e-01
      vertex   -1.877787e+02 1.197000e+02 5.000000e+01
    endloop
  endfacet
  facet normal 0.000000e+00 -1.000000e+00 0.000000e+00
    outer loop
      vertex   -2.386213e+02 1.197000e+02 5.000000e+01
      vertex   -2.386213e+02 1.197000e+02 5.232441e-01
      vertex   -1.877787e+02 1.197000e+02 5.232441e-01
    endloop
  endfacet
  facet normal -1.000000e+00 0.000000e+00 0.000000e+00
    outer loop
      vertex   -2.405000e+02 1.215787e+02 5.232441e-01
      vertex   -2.405000e+02 1.215787e+02 5.000000e+01
      vertex   -2.405000e+02 1.217232e+02 3.786797e-01
    endloop
  endfacet
  facet normal -1.000000e+00 0.000000e+00 0.000000e+00
    outer loop
      vertex   -2.405000e+02 1.217232e+02 3.786797e-01
      vertex   -2.405000e+02 1.215787e+02 5.000000e+01
      vertex   -2.405000e+02 1.284213e+02 5.000000e+01
    endloop
  endfacet
  facet normal -1.000000e+00 0.000000e+00 0.000000e+00
    outer loop
      vertex   -2.405000e+02 1.282768e+02 3.786797e-01
      vertex   -2.405000e+02 1.284213e+02 5.000000e+01
      vertex   -2.405000e+02 1.284213e+02 5.232441e-01
    endloop
  endfacet
  facet normal -1.000000e+00 0.000000e+00 0.000000e+00
    outer loop
      vertex   -2.405000e+02 1.282768e+02 3.786797e-01
      vertex   -2.405000e+02 1.217232e+02 3.786797e-01
      vertex   -2.405000e+02 1.284213e+02 5.000000e+01
    endloop
  endfacet
  facet normal -5.773503e-01 -5.773503e-01 -5.773503e-01
    outer loop
      vertex   -2.384768e+02 1.197000e+02 3.786797e-01
      vertex   -2.386213e+02 1.197000e+02 5.232441e-01
      vertex   -2.384768e+02 1.215787e+02 -1.500000e+00
    endloop
  endfacet
  facet normal -5.773503e-01 -5.773503e-01 -5.773503e-01
    outer loop
      vertex   -2.384768e+02 1.215787e+02 -1.500000e+00
      vertex   -2.386213e+02 1.197000e+02 5.232441e-01
      vertex   -2.405000e+02 1.215787e+02 5.232441e-01
    endloop
  endfacet
  facet normal -5.773503e-01 -5.773503e-01 -5.773503e-01
    outer loop
      vertex   -2.386213e+02 1.217232e+02 -1.500000e+00
      vertex   -2.405000e+02 1.215787e+02 5.232441e-01
      vertex   -2.405000e+02 1.217232e+02 3.786797e-01
    endloop
  endfacet
  facet normal -5.773503e-01 -5.773503e-01 -5.773503e-01
    outer loop
      vertex   -2.386213e+02 1.217232e+02 -1.500000e+00
      vertex   -2.384768e+02 1.215787e+02 -1.500000e+00
      vertex   -2.405000e+02 1.215787e+02 5.232441e-01
    endloop
  endfacet
  facet normal -5.773503e-01 5.773503e-01 -5.773503e-01
    outer loop
      vertex   -2.386213e+02 1.303000e+02 5.232441e-01
      vertex   -2.384768e+02 1.303000e+02 3.786797e-01
      vertex   -2.405000e+02 1.284213e+02 5.232441e-01
    endloop
  endfacet
  facet normal -5.773503e-01 5.773503e-01 -5.773503e-01
    outer loop
      vertex   -2.405000e+02 1.284213e+02 5.232441e-01
      vertex   -2.384768e+02 1.303000e+02 3.786797e-01
      vertex   -2.384768e+02 1.284213e+02 -1.500000e+00
    endloop
  endfacet
  facet normal -5.773503e-01 5.773503e-01 -5.773503e-01
    outer loop
      vertex   -2.405000e+02 1.282768e+02 3.786797e-01
      vertex   -2.384768e+02 1.284213e+02 -1.500000e+00
      vertex   -2.386213e+02 1.282768e+02 -1.500000e+00
    endloop
  endfacet
  facet normal -5.773503e-01 5.773503e-01 -5.773503e-01
    outer loop
      vertex   -2.405000e+02 1.282768e+02 3.786797e-01
      vertex   -2.405000e+02 1.284213e+02 5.232441e-01
      vertex   -2.384768e+02 1.284213e+02 -1.500000e+00
    endloop
  endfacet
  facet normal -7.071068e-01 7.071068e-01 0.000000e+00
    outer loop
      vertex   -2.405000e+02 1.284213e+02 5.232441e-01
      vertex   -2.405000e+02 1.284213e+02 5.000000e+01
      vertex   -2.386213e+02 1.303000e+02 5.232441e-01
    endloop
  endfacet
  facet normal -7.071068e-01 7.071068e-01 -4.053989e-16
    outer loop
      vertex   -2.386213e+02 1.303000e+02 5.232441e-01
      vertex   -2.405000e+02 1.284213e+02 5.000000e+01
      vertex   -2.386213e+02 1.303000e+02 5.000000e+01
    endloop
  endfacet
  facet normal 7.071068e-01 7.071068e-01 -1.218583e-15
    outer loop
      vertex   -1.877787e+02 1.303000e+02 5.232441e-01
      vertex   -1.877787e+02 1.303000e+02 5.000000e+01
      vertex   -1.859000e+02 1.284213e+02 5.232441e-01
    endloop
  endfacet
  facet normal 7.071068e-01 7.071068e-01 0.000000e+00
    outer loop
      vertex   -1.859000e+02 1.284213e+02 5.232441e-01
      vertex   -1.877787e+02 1.303000e+02 5.000000e+01
      vertex   -1.859000e+02 1.284213e+02 5.000000e+01
    endloop
  endfacet
  facet normal 5.773503e-01 -5.773503e-01 -5.773503e-01
    outer loop
      vertex   -1.877787e+02 1.217232e+02 -1.500000e+00
      vertex   -1.859000e+02 1.217232e+02 3.786797e-01
      vertex   -1.879232e+02 1.215787e+02 -1.500000e+00
    endloop
  endfacet
  facet normal 5.773503e-01 -5.773503e-01 -5.773503e-01
    outer loop
      vertex   -1.879232e+02 1.215787e+02 -1.500000e+00
      vertex   -1.859000e+02 1.217232e+02 3.786797e-01
      vertex   -1.859000e+02 1.215787e+02 5.232441e-01
    endloop
  endfacet
  facet normal 5.773503e-01 -5.773503e-01 -5.773503e-01
    outer loop
      vertex   -1.879232e+02 1.197000e+02 3.786797e-01
      vertex   -1.859000e+02 1.215787e+02 5.232441e-01
      vertex   -1.877787e+02 1.197000e+02 5.232441e-01
    endloop
  endfacet
  facet normal 5.773503e-01 -5.773503e-01 -5.773503e-01
    outer loop
      vertex   -1.879232e+02 1.197000e+02 3.786797e-01
      vertex   -1.879232e+02 1.215787e+02 -1.500000e+00
      vertex   -1.859000e+02 1.215787e+02 5.232441e-01
    endloop
  endfacet
  facet normal 7.071068e-01 -7.071068e-01 0.000000e+00
    outer loop
      vertex   -1.859000e+02 1.215787e+02 5.232441e-01
      vertex   -1.859000e+02 1.215787e+02 5.000000e+01
      vertex   -1.877787e+02 1.197000e+02 5.232441e-01
    endloop
  endfacet
  facet normal 7.071068e-01 -7.071068e-01 0.000000e+00
    outer loop
      vertex   -1.877787e+02 1.197000e+02 5.232441e-01
      vertex   -1.859000e+02 1.215787e+02 5.000000e+01
      vertex   -1.877787e+02 1.197000e+02 5.000000e+01
    endloop
  endfacet
  facet normal 1.304437e-16 -7.071068e-01 -7.071068e-01
    outer loop
      vertex   -2.384768e+02 1.215787e+02 -1.500000e+00
      vertex   -1.879232e+02 1.215787e+02 -1.500000e+00
      vertex   -2.384768e+02 1.197000e+02 3.786797e-01
    endloop
  endfacet
  facet normal -1.322547e-16 -7.071068e-01 -7.071068e-01
    outer loop
      vertex   -2.384768e+02 1.197000e+02 3.786797e-01
      vertex   -1.879232e+02 1.215787e+02 -1.500000e+00
      vertex   -1.879232e+02 1.197000e+02 3.786797e-01
    endloop
  endfacet
  facet normal 7.071068e-01 -3.086127e-15 -7.071068e-01
    outer loop
      vertex   -1.859000e+02 1.217232e+02 3.786797e-01
      vertex   -1.877787e+02 1.217232e+02 -1.500000e+00
      vertex   -1.859000e+02 1.282768e+02 3.786797e-01
    endloop
  endfacet
  facet normal 7.071068e-01 -6.947829e-16 -7.071068e-01
    outer loop
      vertex   -1.859000e+02 1.282768e+02 3.786797e-01
      vertex   -1.877787e+02 1.217232e+02 -1.500000e+00
      vertex   -1.877787e+02 1.282768e+02 -1.500000e+00
    endloop
  endfacet
  facet normal -7.071068e-01 -7.071068e-01 0.000000e+00
    outer loop
      vertex   -2.386213e+02 1.197000e+02 5.232441e-01
      vertex   -2.386213e+02 1.197000e+02 5.000000e+01
      vertex   -2.405000e+02 1.215787e+02 5.232441e-01
    endloop
  endfacet
  facet normal -7.071068e-01 -7.071068e-01 2.026994e-16
    outer loop
      vertex   -2.405000e+02 1.215787e+02 5.232441e-01
      vertex   -2.386213e+02 1.197000e+02 5.000000e+01
      vertex   -2.405000e+02 1.215787e+02 5.000000e+01
    endloop
  endfacet
  facet normal -7.071068e-01 -9.691969e-16 -7.071068e-01
    outer loop
      vertex   -2.405000e+02 1.282768e+02 3.786797e-01
      vertex   -2.386213e+02 1.282768e+02 -1.500000e+00
      vertex   -2.405000e+02 1.217232e+02 3.786797e-01
    endloop
  endfacet
  facet normal -7.071068e-01 -2.994754e-15 -7.071068e-01
    outer loop
      vertex   -2.405000e+02 1.217232e+02 3.786797e-01
      vertex   -2.386213e+02 1.282768e+02 -1.500000e+00
      vertex   -2.386213e+02 1.217232e+02 -1.500000e+00
    endloop
  endfacet
  facet normal 1.335495e-16 7.071068e-01 -7.071068e-01
    outer loop
      vertex   -2.384768e+02 1.303000e+02 3.786797e-01
      vertex   -1.879232e+02 1.303000e+02 3.786797e-01
      vertex   -2.384768e+02 1.284213e+02 -1.500000e+00
    endloop
  endfacet
  facet normal -1.223356e-16 7.071068e-01 -7.071068e-01
    outer loop
      vertex   -2.384768e+02 1.284213e+02 -1.500000e+00
      vertex   -1.879232e+02 1.303000e+02 3.786797e-01
      vertex   -1.879232e+02 1.284213e+02 -1.500000e+00
    endloop
  endfacet
  facet normal 0.000000e+00 0.000000e+00 1.000000e+00
    outer loop
      vertex   -2.390000e+02 1.222000e+02 5.000000e+01
      vertex   -2.405000e+02 1.215787e+02 5.000000e+01
      vertex   -2.380000e+02 1.212000e+02 5.000000e+01
    endloop
  endfacet
  facet normal 0.000000e+00 -0.000000e+00 1.000000e+00
    outer loop
      vertex   -2.390000e+02 1.222000e+02 5.000000e+01
      vertex   -2.390000e+02 1.278000e+02 5.000000e+01
      vertex   -2.405000e+02 1.215787e+02 5.000000e+01
    endloop
  endfacet
  facet normal 0.000000e+00 -0.000000e+00 1.000000e+00
    outer loop
      vertex   -2.405000e+02 1.215787e+02 5.000000e+01
      vertex   -2.390000e+02 1.278000e+02 5.000000e+01
      vertex   -2.405000e+02 1.284213e+02 5.000000e+01
    endloop
  endfacet
  facet normal -0.000000e+00 0.000000e+00 1.000000e+00
    outer loop
      vertex   -2.405000e+02 1.284213e+02 5.000000e+01
      vertex   -2.390000e+02 1.278000e+02 5.000000e+01
      vertex   -2.380000e+02 1.288000e+02 5.000000e+01
    endloop
  endfacet
  facet normal -0.000000e+00 0.000000e+00 1.000000e+00
    outer loop
      vertex   -2.386213e+02 1.303000e+02 5.000000e+01
      vertex   -2.380000e+02 1.288000e+02 5.000000e+01
      vertex   -1.884000e+02 1.288000e+02 5.000000e+01
    endloop
  endfacet
  facet normal 0.000000e+00 0.000000e+00 1.000000e+00
    outer loop
      vertex   -1.877787e+02 1.303000e+02 5.000000e+01
      vertex   -1.884000e+02 1.288000e+02 5.000000e+01
      vertex   -1.859000e+02 1.284213e+02 5.000000e+01
    endloop
  endfacet
  facet normal 0.000000e+00 0.000000e+00 1.000000e+00
    outer loop
      vertex   -1.877787e+02 1.303000e+02 5.000000e+01
      vertex   -2.386213e+02 1.303000e+02 5.000000e+01
      vertex   -1.884000e+02 1.288000e+02 5.000000e+01
    endloop
  endfacet
  facet normal 0.000000e+00 -0.000000e+00 1.000000e+00
    outer loop
      vertex   -2.405000e+02 1.284213e+02 5.000000e+01
      vertex   -2.380000e+02 1.288000e+02 5.000000e+01
      vertex   -2.386213e+02 1.303000e+02 5.000000e+01
    endloop
  endfacet
  facet normal -0.000000e+00 0.000000e+00 1.000000e+00
    outer loop
      vertex   -1.884000e+02 1.288000e+02 5.000000e+01
      vertex   -1.874000e+02 1.278000e+02 5.000000e+01
      vertex   -1.859000e+02 1.284213e+02 5.000000e+01
    endloop
  endfacet
  facet normal 0.000000e+00 0.000000e+00 1.000000e+00
    outer loop
      vertex   -1.859000e+02 1.284213e+02 5.000000e+01
      vertex   -1.874000e+02 1.278000e+02 5.000000e+01
      vertex   -1.874000e+02 1.222000e+02 5.000000e+01
    endloop
  endfacet
  facet normal 0.000000e+00 0.000000e+00 1.000000e+00
    outer loop
      vertex   -1.859000e+02 1.215787e+02 5.000000e+01
      vertex   -1.874000e+02 1.222000e+02 5.000000e+01
      vertex   -1.884000e+02 1.212000e+02 5.000000e+01
    endloop
  endfacet
  facet normal 0.000000e+00 0.000000e+00 1.000000e+00
    outer loop
      vertex   -1.877787e+02 1.197000e+02 5.000000e+01
      vertex   -1.884000e+02 1.212000e+02 5.000000e+01
      vertex   -2.386213e+02 1.197000e+02 5.000000e+01
    endloop
  endfacet
  facet normal 0.000000e+00 -0.000000e+00 1.000000e+00
    outer loop
      vertex   -1.877787e+02 1.197000e+02 5.000000e+01
      vertex   -1.859000e+02 1.215787e+02 5.000000e+01
      vertex   -1.884000e+02 1.212000e+02 5.000000e+01
    endloop
  endfacet
  facet normal 0.000000e+00 0.000000e+00 1.000000e+00
    outer loop
      vertex   -1.859000e+02 1.284213e+02 5.000000e+01
      vertex   -1.874000e+02 1.222000e+02 5.000000e+01
      vertex   -1.859000e+02 1.215787e+02 5.000000e+01
    endloop
  endfacet
  facet normal 0.000000e+00 0.000000e+00 1.000000e+00
    outer loop
      vertex   -1.884000e+02 1.212000e+02 5.000000e+01
      vertex   -2.380000e+02 1.212000e+02 5.000000e+01
      vertex   -2.386213e+02 1.197000e+02 5.000000e+01
    endloop
  endfacet
  facet normal 0.000000e+00 -0.000000e+00 1.000000e+00
    outer loop
      vertex   -2.386213e+02 1.197000e+02 5.000000e+01
      vertex   -2.380000e+02 1.212000e+02 5.000000e+01
      vertex   -2.405000e+02 1.215787e+02 5.000000e+01
    endloop
  endfacet
  facet normal -1.756907e-16 -6.775773e-14 -1.000000e+00
    outer loop
      vertex   -1.879232e+02 1.284213e+02 -1.500000e+00
      vertex   -1.877787e+02 1.282768e+02 -1.500000e+00
      vertex   -2.384768e+02 1.284213e+02 -1.500000e+00
    endloop
  endfacet
  facet normal 5.328095e-16 1.807099e-13 -1.000000e+00
    outer loop
      vertex   -2.384768e+02 1.284213e+02 -1.500000e+00
      vertex   -1.877787e+02 1.282768e+02 -1.500000e+00
      vertex   -2.386213e+02 1.282768e+02 -1.500000e+00
    endloop
  endfacet
  facet normal 5.328095e-16 -9.825715e-16 -1.000000e+00
    outer loop
      vertex   -2.386213e+02 1.282768e+02 -1.500000e+00
      vertex   -1.877787e+02 1.282768e+02 -1.500000e+00
      vertex   -1.877787e+02 1.217232e+02 -1.500000e+00
    endloop
  endfacet
  facet normal 1.135496e-16 -3.521343e-14 -1.000000e+00
    outer loop
      vertex   -2.386213e+02 1.217232e+02 -1.500000e+00
      vertex   -1.877787e+02 1.217232e+02 -1.500000e+00
      vertex   -2.384768e+02 1.215787e+02 -1.500000e+00
    endloop
  endfacet
  facet normal 1.135496e-16 -4.235222e-15 -1.000000e+00
    outer loop
      vertex   -2.386213e+02 1.217232e+02 -1.500000e+00
      vertex   -2.386213e+02 1.282768e+02 -1.500000e+00
      vertex   -1.877787e+02 1.217232e+02 -1.500000e+00
    endloop
  endfacet
  facet normal -9.662991e-17 3.849552e-14 -1.000000e+00
    outer loop
      vertex   -1.877787e+02 1.217232e+02 -1.500000e+00
      vertex   -1.879232e+02 1.215787e+02 -1.500000e+00
      vertex   -2.384768e+02 1.215787e+02 -1.500000e+00
    endloop
  endfacet
endsolid
